<?xml version="1.0" encoding="utf-8"?>
<!-- Generator: Adobe Illustrator 21.1.0, SVG Export Plug-In . SVG Version: 6.00 Build 0)  -->
<svg version="1.1" id="Layer_1" xmlns="http://www.w3.org/2000/svg" xmlns:xlink="http://www.w3.org/1999/xlink" x="0px" y="0px"
	 viewBox="0 0 550 150" style="enable-background:new 0 0 550 150;" xml:space="preserve">
<style type="text/css">
	.st0{fill:none;stroke:#0071BC;stroke-miterlimit:10;}
	.st1{fill:none;}
	.st2{font-family:'Phosphate-Inline';}
	.st3{font-size:72px;}
</style>
<path class="st0" d="M32.1,33.1H116c6.6,0,12,5.4,12,12v83.7c0,6.6-5.4,12-12,12H32.1c-6.6,0-12-5.4-12-12V45.1
	C20.1,38.5,25.5,33.1,32.1,33.1z"/>
<ellipse class="st0" cx="48.6" cy="65" rx="20.9" ry="20.8"/>
<ellipse class="st0" cx="48.6" cy="65" rx="18.6" ry="18.6"/>
<ellipse class="st0" cx="100" cy="65" rx="20.9" ry="20.8"/>
<ellipse class="st0" cx="100" cy="65" rx="18.6" ry="18.6"/>
<path class="st0" d="M36,101.2h75.3c4,0,7.3,3.3,7.3,7.3V125c0,4-3.3,7.3-7.3,7.3H36c-4,0-7.3-3.3-7.3-7.3v-16.5
	C28.7,104.5,32,101.2,36,101.2z"/>
<rect x="10.9" y="68.7" class="st0" width="9.2" height="36.2"/>
<rect x="127.9" y="68.9" class="st0" width="9.2" height="36.2"/>
<rect x="6.4" y="77.9" class="st0" width="4.5" height="17.7"/>
<rect x="137.1" y="78.1" class="st0" width="4.5" height="17.7"/>
<path class="st0" d="M37.5,65c0-10.3,1.3-11,20.5-11v11H37.5z"/>
<path class="st0" d="M88.2,63.5c0-10.2,1.3-10.9,20.5-10.9v10.9H88.2z"/>
<polyline class="st0" points="46.9,132.3 46.7,101.2 64.8,101.2 65,132.3 83,132.3 83,101.2 101.3,101.2 101.3,132.3 "/>
<polyline class="st0" points="137.1,77.9 137.1,8.9 128.8,9.4 128.9,27.1 118.8,9.4 118.8,27.1 107.8,9.4 107.8,27.1 97.8,9.4 
	97.8,27.1 87.5,9.4 87.5,27.1 77.4,9.2 77.4,27 66.9,9.3 67,27 56.9,9.3 56.9,27 45.9,9.3 45.9,27 35.9,9.3 35.9,27 25.6,9.3 
	25.6,27 15.5,9.1 10.9,8.9 10.9,77.9 "/>
<rect x="159.6" y="58" class="st1" width="384.4" height="59"/>
<text transform="matrix(1 0 0 1 159.6172 106.0232)" class="st0 st2 st3">BLOCKHEAD</text>
</svg>
