<?xml version="1.0" encoding="utf-8"?>
<!-- Generator: Adobe Illustrator 21.1.0, SVG Export Plug-In . SVG Version: 6.00 Build 0)  -->
<svg version="1.1" id="Layer_1" xmlns="http://www.w3.org/2000/svg" xmlns:xlink="http://www.w3.org/1999/xlink" x="0px" y="0px"
	 viewBox="0 0 150 150" style="enable-background:new 0 0 150 150;" xml:space="preserve">
<style type="text/css">
	.st0{fill:none;stroke:#0071BC;stroke-miterlimit:10;}
</style>
<path class="st0" d="M33.1,38.1h83.9c6.6,0,12,5.4,12,12v83.7c0,6.6-5.4,12-12,12H33.1c-6.6,0-12-5.4-12-12V50.1
	C21.1,43.5,26.5,38.1,33.1,38.1z"/>
<ellipse class="st0" cx="49.6" cy="70" rx="20.9" ry="20.8"/>
<ellipse class="st0" cx="49.6" cy="70" rx="18.6" ry="18.6"/>
<ellipse class="st0" cx="101" cy="70" rx="20.9" ry="20.8"/>
<ellipse class="st0" cx="101" cy="70" rx="18.6" ry="18.6"/>
<path class="st0" d="M37,106.2h75.3c4,0,7.3,3.3,7.3,7.3V130c0,4-3.3,7.3-7.3,7.3H37c-4,0-7.3-3.3-7.3-7.3v-16.5
	C29.7,109.5,33,106.2,37,106.2z"/>
<rect x="11.9" y="73.7" class="st0" width="9.2" height="36.2"/>
<rect x="128.9" y="73.9" class="st0" width="9.2" height="36.2"/>
<rect x="7.4" y="82.9" class="st0" width="4.5" height="17.7"/>
<rect x="138.1" y="83.1" class="st0" width="4.5" height="17.7"/>
<path class="st0" d="M38.5,70C38.5,59.7,39.8,59,59,59V70H38.5z"/>
<path class="st0" d="M89.2,68.5c0-10.2,1.3-10.9,20.5-10.9v10.9H89.2z"/>
<polyline class="st0" points="47.9,137.3 47.7,106.2 65.8,106.2 66,137.3 84,137.3 84,106.2 102.3,106.2 102.3,137.3 "/>
<polyline class="st0" points="138.1,82.9 138.1,13.9 129.8,14.4 129.9,32.1 119.8,14.4 119.8,32.1 108.8,14.4 108.8,32.1 98.8,14.4 
	98.8,32.1 88.5,14.4 88.5,32.1 78.4,14.2 78.4,32 67.9,14.3 68,32 57.9,14.3 57.9,32 46.9,14.3 46.9,32 36.9,14.3 36.9,32 
	26.6,14.3 26.6,32 16.5,14.1 11.9,13.9 11.9,82.9 "/>
</svg>
